<?xml version="1.0" standalone="no"?>
<!DOCTYPE svg PUBLIC "-//W3C//DTD SVG 20010904//EN"
 "http://www.w3.org/TR/2001/REC-SVG-20010904/DTD/svg10.dtd">
<svg version="1.0" xmlns="http://www.w3.org/2000/svg"
 width="1278.000000pt" height="1278.000000pt" viewBox="0 0 1278.000000 1278.000000"
 preserveAspectRatio="xMidYMid meet">
<metadata>
Created by potrace 1.14, written by Peter Selinger 2001-2017
</metadata>
<g transform="translate(0.000000,1278.000000) scale(0.100000,-0.100000)"
fill="#000000" stroke="none">
<path d="M4888 11692 c-27 -17 -290 -169 -357 -207 -20 -11 -70 -40 -111 -64
-257 -150 -365 -212 -720 -417 -217 -125 -408 -235 -425 -244 -71 -41 -553
-319 -582 -336 -17 -11 -70 -41 -117 -68 l-86 -50 0 -3922 0 -3922 48 -27 c26
-15 67 -39 92 -53 52 -29 271 -156 315 -183 17 -10 43 -25 58 -33 16 -8 90
-51 165 -95 250 -145 836 -483 892 -514 30 -16 66 -38 80 -47 14 -9 39 -24 55
-32 17 -9 113 -64 215 -123 102 -59 204 -118 227 -131 23 -13 90 -52 150 -87
59 -35 116 -66 126 -70 11 -4 45 10 100 42 45 26 173 101 284 164 111 64 217
126 235 137 18 11 39 23 47 26 13 7 71 40 271 156 139 81 539 312 580 335 66
38 355 205 420 243 36 21 211 122 390 225 179 103 384 222 455 263 72 41 144
83 160 92 17 9 56 32 88 51 33 19 75 43 95 55 21 11 81 46 135 77 53 31 141
82 195 113 53 31 112 65 130 75 17 11 47 27 65 38 86 49 143 82 157 90 8 5 96
56 194 113 99 57 200 115 225 130 25 15 80 46 121 69 126 72 142 81 283 164
76 44 154 89 175 101 122 69 494 285 529 307 24 15 45 27 47 27 3 0 29 14 58
31 63 38 107 63 168 97 25 13 50 28 55 32 6 5 33 21 61 37 55 31 329 188 372
214 15 9 48 27 74 42 25 14 64 37 87 51 22 14 45 26 51 26 5 0 10 5 10 10 0 6
4 10 10 10 12 0 463 259 470 270 6 10 6 2807 0 2813 -3 2 -25 16 -50 29 -25
14 -115 66 -200 115 -85 50 -226 131 -313 181 -88 51 -163 92 -168 92 -5 0 -9
5 -9 10 0 6 -4 10 -9 10 -6 0 -60 29 -121 65 -61 36 -130 76 -153 89 -23 13
-80 46 -127 73 -47 27 -191 111 -320 185 -129 75 -251 145 -270 157 -19 11
-42 24 -50 28 -8 4 -74 42 -148 85 -73 43 -137 78 -142 78 -6 0 -10 5 -10 10
0 6 -4 10 -9 10 -6 0 -60 29 -121 65 -61 36 -130 76 -153 89 -23 13 -82 47
-132 76 -49 29 -110 64 -135 78 -25 14 -101 58 -170 97 -199 116 -624 361
-760 440 -69 40 -168 97 -220 127 -52 30 -115 66 -140 80 -25 14 -128 74 -230
133 -102 59 -204 118 -227 131 -23 12 -112 64 -197 113 -85 50 -170 99 -188
109 -18 11 -105 61 -193 112 -88 51 -176 102 -195 113 -58 32 -422 243 -460
266 -19 11 -48 28 -65 37 -16 9 -158 91 -315 182 -157 90 -305 176 -330 190
-25 14 -137 78 -249 144 -112 65 -206 118 -210 117 -3 0 -18 -8 -33 -17z"/>
</g>
</svg>
